<svg data-v-423bf9ae="" xmlns="http://www.w3.org/2000/svg" viewBox="0 0 50.71038837997305 60" class="font"><!----><!----><defs data-v-423bf9ae=""><linearGradient data-v-423bf9ae="" gradientTransform="rotate(25)" id="e234d573-9287-47dd-ad64-8d6117efdd09" x1="0%" y1="0%" x2="100%" y2="0%"><stop data-v-423bf9ae="" offset="0%" style="stop-color: rgb(99, 41, 221); stop-opacity: 1;"></stop><stop data-v-423bf9ae="" offset="100%" style="stop-color: rgb(145, 94, 255); stop-opacity: 1;"></stop></linearGradient></defs><g data-v-423bf9ae="" id="c14453a0-d06c-4c3f-a89a-2ff95c4ed603" fill="url(#e234d573-9287-47dd-ad64-8d6117efdd09)" transform="matrix(5.464481102134876,0,0,5.464481102134876,-1.0382510773344258,-15.300546110155153)"><path d="M0.19 13.78L2.13 2.80L5.28 2.80Q7.36 2.80 8.42 3.89Q9.47 4.97 9.47 6.92L9.47 6.92Q9.47 7.65 9.32 8.47L9.32 8.47Q8.87 11.07 7.42 12.42Q5.97 13.78 3.51 13.78L3.51 13.78L0.19 13.78ZM3.55 11.35L3.60 11.35Q4.65 11.35 5.37 10.49Q6.09 9.63 6.37 8.05L6.37 8.05Q6.48 7.40 6.48 6.97L6.48 6.97Q6.48 6.12 6.12 5.69Q5.76 5.26 5.00 5.26L5.00 5.26L4.62 5.26L3.55 11.35Z"></path></g><!----><!----></svg>